HIERARCHY
ROOT Hips
{
	OFFSET -3.958830 18.904000 13.208200
	CHANNELS 6 Xposition Yposition Zposition Zrotation Yrotation Xrotation 
	JOINT LHipJoint
	{
		OFFSET 0.000000 0.000000 0.000000
		CHANNELS 3 Zrotation Yrotation Xrotation
		JOINT LeftUpLeg
		{
			OFFSET 1.800000 -1.400000 0.085000
			CHANNELS 3 Zrotation Yrotation Xrotation
			JOINT LeftLeg
			{
				OFFSET 2.215000 -6.000000 0.000000
				CHANNELS 3 Zrotation Yrotation Xrotation
				JOINT LeftFoot
				{
					OFFSET 2.500000 -6.900000 0.000000
					CHANNELS 3 Zrotation Yrotation Xrotation
					JOINT LeftToeBase
					{
						OFFSET 0.200000 -0.500000 1.950000
						CHANNELS 3 Zrotation Yrotation Xrotation
						End Site
						{
							OFFSET 0.000000 0.000000 0.000000
						}
					}
				}
			}
		}
	}
	JOINT RHipJoint
	{
		OFFSET 0.000000 0.000000 0.000000
		CHANNELS 3 Zrotation Yrotation Xrotation
		JOINT RightUpLeg
		{
			OFFSET -1.800000 -1.400000 0.085000
			CHANNELS 3 Zrotation Yrotation Xrotation
			JOINT RightLeg
			{
				OFFSET -2.215000 -6.000000 0.000000
				CHANNELS 3 Zrotation Yrotation Xrotation
				JOINT RightFoot
				{
					OFFSET -2.500000 -6.900000 0.000000
					CHANNELS 3 Zrotation Yrotation Xrotation
					JOINT RightToeBase
					{
						OFFSET -0.200000 -0.500000 1.950000
						CHANNELS 3 Zrotation Yrotation Xrotation
						End Site
						{
							OFFSET 0.000000 0.000000 0.000000
						}
					}
				}
			}
		}
	}
	JOINT LowerBack
	{
		OFFSET 0.000000 0.000000 0.000000
		CHANNELS 3 Zrotation Yrotation Xrotation
		JOINT Spine
		{
			OFFSET -0.087000 1.940000 -0.288900
			CHANNELS 3 Zrotation Yrotation Xrotation
			JOINT Spine1
			{
				OFFSET 0.000000 1.950000 0.060000
				CHANNELS 3 Zrotation Yrotation Xrotation
				JOINT Neck
				{
					OFFSET 0.000000 0.000000 0.000000
					CHANNELS 3 Zrotation Yrotation Xrotation
					JOINT Neck1
					{
						OFFSET 0.000000 1.600000 0.340000
						CHANNELS 3 Zrotation Yrotation Xrotation
						JOINT Head
						{
							OFFSET 0.000000 1.667000 -0.240000
							CHANNELS 3 Zrotation Yrotation Xrotation
							End Site
							{
								OFFSET 0.000000 0.000000 0.000000
							}
						}
					}
				}
				JOINT LeftShoulder
				{
					OFFSET 0.000000 0.000000 0.000000
					CHANNELS 3 Zrotation Yrotation Xrotation
					JOINT LeftArm
					{
						OFFSET 2.700000 1.550000 -0.730000
						CHANNELS 3 Zrotation Yrotation Xrotation
						JOINT LeftForeArm
						{
							OFFSET 5.450000 0.000000 0.000000
							CHANNELS 3 Zrotation Yrotation Xrotation
							JOINT LeftHand
							{
								OFFSET 3.450000 0.000000 0.000000
								CHANNELS 3 Zrotation Yrotation Xrotation
								JOINT LeftHandIndex1
								{
									OFFSET 0.750000 0.000000 0.000000
									CHANNELS 3 Zrotation Yrotation Xrotation
									End Site
									{
										OFFSET 0.000000 0.000000 0.000000
									}
								}
							}
						}
					}
				}
				JOINT RightShoulder
				{
					OFFSET 0.000000 0.000000 0.000000
					CHANNELS 3 Zrotation Yrotation Xrotation
					JOINT RightArm
					{
						OFFSET -2.700000 1.550000 -0.730000
						CHANNELS 3 Zrotation Yrotation Xrotation
						JOINT RightForeArm
						{
							OFFSET -5.450000 0.000000 0.000000
							CHANNELS 3 Zrotation Yrotation Xrotation
							JOINT RightHand
							{
								OFFSET -3.450000 0.000000 0.000000
								CHANNELS 3 Zrotation Yrotation Xrotation
								JOINT RightHandIndex1
								{
									OFFSET -0.750000 0.000000 0.000000
									CHANNELS 3 Zrotation Yrotation Xrotation
									End Site
									{
										OFFSET 0.000000 0.000000 0.000000
									}
								}
							}
						}
					}
				}
			}
		}
	}
}
MOTION
Frames: 8
Frame Time: 0.016667
2.104230 17.406040 -1.877680 -6.083481 -51.776382 10.171918 -15.410013 13.715865 3.138292 3.511460 0.389095 -0.710451 -9.491309 5.841574 5.644791 0.015170 4.616773 3.074412 0.261690 0.179940 0.173440 18.074689 -10.227015 2.656441 -7.388684 -0.155019 -31.687350 -2.602576 -2.268880 9.632245 0.104352 -1.726923 3.569766 0.177020 0.158630 0.227890 -3.004242 -3.313493 -7.103247 4.916386 -8.513035 5.129414 -0.654900 -8.872273 5.772332 1.204494 4.959916 -8.880184 6.140107 -3.884183 29.654016 1.224290 -2.028400 -7.841490 -19.855330 -18.114650 4.324088 -50.438758 -23.220747 5.811592 7.078213 -2.244961 -0.938291 -3.948430 3.101673 0.193430 0.117740 0.047930 0.131970 17.680370 11.218367 4.448802 63.355214 4.248767 -2.674102 -9.761341 -5.988075 1.377014 2.781500 -1.509664 -0.076350 0.060490 -0.069180 -0.023890 
2.102970 17.395170 -1.876180 -6.379924 -54.044603 10.242825 -15.468421 13.716266 3.182756 3.343183 0.428048 -0.236931 -10.603547 6.080463 5.579345 0.022608 4.780971 3.021175 0.281260 0.203410 0.188050 18.041697 -10.113642 2.642466 -6.526662 -0.028639 -32.014781 -3.048728 -2.132217 9.538787 0.109888 -1.667059 3.588489 0.206520 0.171420 0.219060 -2.962947 -3.544643 -7.093746 4.563288 -9.241224 4.974962 -0.608690 -9.611417 6.459232 0.981780 4.473705 -8.705948 5.210138 -2.839872 30.269910 1.180580 -1.251560 -7.965030 -19.378887 -18.393619 4.420314 -51.144640 -24.443202 6.551888 8.192860 -1.973489 -1.023727 -3.961147 3.099920 0.196880 0.125300 0.040690 0.135280 17.721750 11.660944 4.009125 63.267961 6.467647 -1.585171 -9.757564 -7.154147 1.529888 2.784094 -1.521981 -0.092880 0.085650 -0.068910 -0.031110 
2.117690 17.402770 -1.880510 -6.639347 -56.379185 10.024464 -15.531380 13.812115 3.217091 2.753301 0.553263 0.191312 -10.556467 6.156547 5.775681 -0.004658 4.850932 2.996990 0.291660 0.206330 0.198580 17.991279 -10.005294 2.633373 -5.575115 -0.013634 -32.064468 -3.514556 -1.994878 9.264371 0.122681 -1.609853 3.607133 0.226380 0.184510 0.210410 -2.838790 -3.919389 -7.124159 3.543095 -9.930530 5.029501 0.099354 -10.377118 7.797795 0.360449 4.058007 -9.249472 4.103204 -2.198652 32.030127 0.913180 -0.872530 -7.363190 -18.881668 -20.836968 4.989898 -50.718673 -27.657375 8.245143 8.569122 -1.033003 -1.021780 -3.981946 3.103621 0.203580 0.134370 0.024650 0.132020 18.449828 14.126187 4.307692 62.523592 8.599542 -0.282086 -9.626234 -9.372946 1.910108 2.796620 -1.547481 -0.113850 0.105700 -0.057220 -0.043820 
2.140590 17.413480 -1.876390 -6.840498 -58.687980 9.941347 -15.563974 13.858223 3.263548 1.917984 0.593840 0.114934 -10.761506 6.234196 6.176464 -0.045869 4.859246 2.985975 0.327130 0.244320 0.259370 17.958346 -9.961602 2.653592 -4.730971 -0.044568 -32.595801 -3.963601 -1.915828 9.415360 0.118110 -1.557009 3.613159 0.262040 0.159250 0.200580 -2.770057 -4.087546 -7.201712 2.793300 -10.153482 5.629659 0.076239 -10.612410 8.867467 0.266964 4.291922 -9.841605 4.336625 -2.156110 32.707793 -0.256010 -0.130010 -8.006200 -20.269929 -23.240832 5.599394 -47.549761 -30.659031 8.409950 8.848234 -4.272874 -1.454233 -3.961521 3.066176 0.223150 0.132600 0.040110 0.120370 19.947306 16.279169 4.657150 61.762404 9.916557 0.661657 -10.037894 -10.765514 2.193683 2.801248 -1.572705 -0.129740 0.120360 -0.077740 -0.070500 
2.147290 17.421480 -1.865040 -7.435356 -61.256245 10.369487 -15.631706 13.936306 3.346961 1.300716 0.581402 0.182999 -11.443398 6.304462 5.878430 -0.040893 4.918196 2.968993 0.334550 0.256040 0.278010 17.899368 -9.822284 2.658614 -3.799553 -0.041763 -32.676535 -4.226439 -1.787717 8.811354 0.124858 -1.477900 3.644923 0.276710 0.158480 0.191360 -2.688046 -4.521907 -7.287875 2.312338 -10.779648 6.105088 0.744189 -11.328022 9.629895 -0.406206 3.810717 -10.471010 3.159863 -1.434766 32.990943 -0.644030 0.593400 -8.221690 -21.014672 -24.746154 6.116846 -45.306304 -34.142170 8.767538 9.475720 -7.426351 -1.877513 -3.945516 3.047557 0.226200 0.136590 0.041480 0.116510 21.948509 17.663521 5.118128 60.610856 9.391092 0.150570 -11.477998 -8.437327 1.768586 2.755855 -1.575951 -0.141540 0.135020 -0.083030 -0.079660 
2.158440 17.411760 -1.842010 -7.938047 -62.793078 10.721545 -15.652935 14.062812 3.303405 0.706387 0.658014 0.059311 -10.296779 6.371063 7.364864 -0.108350 4.895201 2.971989 0.360850 0.292430 0.303920 17.871241 -9.788643 2.673899 -3.359782 -0.137027 -32.677800 -4.381858 -1.730213 8.380655 0.123808 -1.451959 3.649381 0.320530 0.165440 0.188750 -2.697273 -4.798697 -7.282273 2.188613 -11.420729 6.247129 0.810504 -12.032915 11.485822 -0.998992 4.059657 -11.610697 3.392478 -1.312981 32.593600 -1.012380 1.000730 -9.043110 -19.256505 -27.358301 7.196097 -43.286991 -40.100134 10.863718 9.915305 -7.076183 -1.954950 -3.999422 3.011014 0.229060 0.152210 0.041810 0.116780 21.038032 19.551671 5.539818 61.485514 10.309426 0.345765 -11.737622 -6.158436 1.278038 2.679328 -1.597517 -0.159130 0.165110 -0.085720 -0.092610 
2.155180 17.401450 -1.818020 -8.845715 -64.652464 11.504021 -15.696861 14.206697 3.285196 0.155900 0.734370 0.104552 -9.230998 6.368512 8.399302 -0.152699 4.888279 2.967833 0.375840 0.314850 0.319630 17.824336 -9.704687 2.701252 -2.540647 -0.092834 -32.840617 -4.736855 -1.627133 8.023561 0.125111 -1.409901 3.652963 0.349270 0.180270 0.201350 -2.715775 -5.216900 -7.310215 2.007685 -12.498959 6.568450 0.929400 -13.224326 13.076514 -1.806457 4.440323 -12.820252 3.834403 -0.161654 32.392671 -0.930510 2.419620 -9.403440 -17.247638 -29.400944 8.497879 -39.246153 -46.256799 13.162478 8.932308 -5.149261 -1.641730 -4.129058 2.939715 0.224170 0.175740 0.038990 0.114640 20.320237 20.362509 5.466993 62.547010 10.969312 -0.289749 -13.160610 -1.818881 0.331084 2.575582 -1.630251 -0.168250 0.174590 -0.080000 -0.103420 
2.142700 17.399190 -1.790590 -10.096573 -66.625543 12.664397 -15.735154 14.293803 3.293666 -0.233304 0.867904 0.540374 -8.487605 6.348700 8.868590 -0.170663 4.902234 2.952995 0.371620 0.311870 0.328360 17.776791 -9.640363 2.774077 -1.847783 0.230965 -33.081163 -4.656439 -1.568133 7.875306 0.126266 -1.358082 3.659775 0.352910 0.181390 0.222270 -2.741651 -5.469939 -7.404790 1.779546 -13.317312 7.064865 0.808043 -14.182403 14.205609 -2.040387 5.058881 -13.851677 4.822285 1.091551 32.386743 -1.130750 4.219500 -9.835250 -17.169927 -30.400102 10.588473 -34.966972 -50.237912 12.084656 11.677207 -9.072809 -2.410179 -4.143054 2.917071 0.229470 0.193300 0.045340 0.101480 20.521906 20.296846 5.056016 62.810881 11.816641 -1.515401 -15.491759 4.297625 -1.141088 2.451568 -1.645485 -0.171220 0.166490 -0.064220 -0.121300 
